<svg xmlns="http://www.w3.org/2000/svg" width="256" height="256" viewBox="0 0 100 100"><rect width="100" height="100" rx="20" fill="#866d9d"></rect><path d="M59.31 75.42L59.31 75.42Q58.14 76.42 55.76 77.14Q53.38 77.86 50.58 77.86L50.58 77.86Q47.16 77.86 44.73 76.86Q42.30 75.88 41.41 74.08L41.41 74.08Q40.33 71.92 38.88 68.54Q37.45 65.17 35.87 61.07Q34.30 56.98 32.59 52.30Q30.88 47.62 29.30 42.89Q27.73 38.17 26.33 33.62Q24.93 29.08 23.95 25.21L23.95 25.21Q25.11 24.13 27.23 23.14Q29.34 22.15 31.77 22.15L31.77 22.15Q34.74 22.15 36.59 23.45Q38.44 24.76 39.42 28.09L39.42 28.09Q42.13 37.45 44.83 46.09Q47.52 54.73 50.58 63.91L50.58 63.91L51.13 63.91Q53.83 55.18 56.70 44.65Q59.58 34.12 62.11 23.77L62.11 23.77Q63.55 23.05 65.16 22.60Q66.78 22.15 68.86 22.15L68.86 22.15Q71.83 22.15 73.94 23.50Q76.05 24.85 76.05 27.91L76.05 27.91Q76.05 29.80 75.11 33.58Q74.16 37.36 72.63 42.13Q71.11 46.90 69.22 52.12Q67.33 57.34 65.48 62.02Q63.64 66.70 61.97 70.30Q60.30 73.89 59.31 75.42Z" fill="#fff"></path></svg>